<?xml version="1.0" encoding="UTF-8"?><svg id="b" xmlns="http://www.w3.org/2000/svg" viewBox="0 0 580 510.76"><g id="c"><path d="m125.7,34.37c66.5,50,138,151.2,164.3,205.5,26.3-54.3,97.8-155.5,164.3-205.5,48-36,125.7-63.9,125.7,24.8,0,17.7-10.2,148.8-16.1,170.1-20.7,74-96.1,92.9-163.2,81.4,117.3,20,147.1,86.1,82.7,152.2-122.5,125.6-176-31.5-189.7-71.7-2.5-7.4-3.7-10.8-3.7-7.9,0-2.9-1.2.5-3.7,7.9-13.7,40.3-67.2,197.4-189.6,71.8-64.4-66.1-34.6-132.3,82.7-152.2-67.1,11.4-142.6-7.4-163.2-81.4C10.2,207.97,0,76.87,0,59.17,0-29.53,77.7-1.63,125.7,34.37h0Z"/></g></svg>