<?xml version="1.0" encoding="UTF-8"?><svg id="b" xmlns="http://www.w3.org/2000/svg" viewBox="0 0 500 387.05"><defs><style>.d{fill:#d1c8ce;}</style></defs><g id="c"><path class="d" d="m423.55,32.42c-32.37-15.14-66.97-26.15-103.15-32.42-4.44,8.03-9.63,18.84-13.21,27.43-38.46-5.78-76.57-5.78-114.32,0-3.58-8.6-8.89-19.4-13.37-27.43-36.22,6.27-70.87,17.31-103.23,32.5C10.97,131.15-6.73,227.35,2.12,322.18c43.3,32.33,85.26,51.98,126.51,64.83,10.19-14.02,19.27-28.92,27.1-44.63-14.9-5.66-29.18-12.65-42.67-20.77,3.58-2.65,7.08-5.42,10.46-8.27,82.27,38.48,171.66,38.48,252.95,0,3.42,2.85,6.92,5.62,10.46,8.27-13.53,8.15-27.84,15.14-42.75,20.81,7.83,15.66,16.87,30.61,27.1,44.62,41.29-12.85,83.29-32.49,126.59-64.87,10.38-109.94-17.74-205.25-74.33-289.76Zm-256.61,231.44c-24.7,0-44.95-23.06-44.95-51.13s19.82-51.17,44.95-51.17,45.38,23.06,44.95,51.17c.04,28.08-19.82,51.13-44.95,51.13Zm166.12,0c-24.7,0-44.95-23.06-44.95-51.13s19.82-51.17,44.95-51.17,45.38,23.06,44.95,51.17c0,28.08-19.82,51.13-44.95,51.13Z"/></g></svg>