<?xml version="1.0" encoding="UTF-8"?><svg id="b" xmlns="http://www.w3.org/2000/svg" viewBox="0 0 500 458.58"><defs><style>.d{fill:#d1c8ce;}</style></defs><g id="c"><path class="d" d="m85.8,0h322.49v458.58h-47.34v-210.06h-.46c-5.23-58.06-54.02-103.55-113.44-103.55s-108.21,45.49-113.44,103.55h-.46v210.06h-47.34V0Z"/><path class="d" d="m0,65.09l19.23,65.09h16.27v263.31c-8.17,0-14.79,6.62-14.79,14.79v17.75h-2.96c-8.17,0-14.79,6.62-14.79,14.79v17.75h165.68v-17.75c0-8.17-6.62-14.79-14.79-14.79h-2.96v-17.75c0-8.17-6.62-14.79-14.79-14.79h-17.75V65.09H0Z"/><path class="d" d="m363.91,393.49c-8.17,0-14.79,6.62-14.79,14.79v17.75h-2.96c-8.17,0-14.79,6.62-14.79,14.79v17.75h165.68v-17.75c0-8.17-6.62-14.79-14.79-14.79h-2.96v-17.75c0-8.17-6.62-14.79-14.79-14.79V130.18h16.27l19.23-65.09h-118.34v328.4h-17.75Z"/></g></svg>