<?xml version="1.0" encoding="UTF-8"?><svg id="b" xmlns="http://www.w3.org/2000/svg" viewBox="0 0 500 500"><defs><style>.d{fill:#d1c8ce;}</style></defs><g id="c"><path class="d" d="m343.75,0h-187.5C69.97,0,0,69.97,0,156.25v187.5c0,86.28,69.97,156.25,156.25,156.25h187.5c86.28,0,156.25-69.97,156.25-156.25v-187.5C500,69.97,430.03,0,343.75,0Zm109.38,343.75c0,60.31-49.06,109.38-109.38,109.38h-187.5c-60.31,0-109.38-49.06-109.38-109.38v-187.5c0-60.31,49.06-109.38,109.38-109.38h187.5c60.31,0,109.38,49.06,109.38,109.38v187.5Z"/><path class="d" d="m250,125c-69.03,0-125,55.97-125,125s55.97,125,125,125,125-55.97,125-125-55.97-125-125-125Zm0,203.12c-43.06,0-78.12-35.06-78.12-78.12s35.06-78.12,78.12-78.12,78.12,35.03,78.12,78.12-35.06,78.12-78.12,78.12Z"/><circle class="d" cx="384.38" cy="115.62" r="16.66"/></g></svg>