<?xml version="1.0" encoding="UTF-8"?><svg id="b" xmlns="http://www.w3.org/2000/svg" viewBox="0 0 500 406.25"><defs><style>.d{fill:#d1c8ce;}</style></defs><g id="c"><path class="d" d="m500,48.09c-18.59,8.16-38.41,13.56-59.06,16.19,21.25-12.69,37.47-32.63,45.09-56.66-19.81,11.81-41.69,20.16-65,24.81C402.22,12.41,375.41,0,346.16,0c-56.75,0-102.44,46.06-102.44,102.53,0,8.13.69,15.94,2.38,23.38-85.22-4.16-160.62-45-211.28-107.22-8.84,15.34-14.03,32.91-14.03,51.81,0,35.5,18.28,66.97,45.53,85.19-16.47-.31-32.62-5.09-46.31-12.62v1.12c0,49.81,35.53,91.19,82.12,100.72-8.34,2.28-17.44,3.37-26.88,3.37-6.56,0-13.19-.38-19.41-1.75,13.28,40.59,50.97,70.44,95.78,71.41-34.88,27.28-79.16,43.72-127.09,43.72-8.41,0-16.47-.38-24.53-1.41,45.41,29.28,99.22,46,157.25,46,188.62,0,291.75-156.25,291.75-291.69,0-4.53-.16-8.91-.38-13.25,20.34-14.44,37.44-32.47,51.37-53.22Z"/></g></svg>