<?xml version="1.0" encoding="UTF-8"?>
<svg id="meteor-icon-kit__regular-whatsapp" xmlns="http://www.w3.org/2000/svg" version="1.1" viewBox="0 0 800 800">
  <!-- Generator: Adobe Illustrator 29.7.1, SVG Export Plug-In . SVG Version: 2.1.1 Build 8)  -->
  <defs>
    <style>
      .st0 {
        fill: #29af3d;
        fill-rule: evenodd;
      }
    </style>
  </defs>
  <path class="st0" d="M683.8,116.2C609.6,41.6,508.7-.3,403.4,0,185,0,7.2,177.8,7.1,396.3c0,69.5,18.2,137.9,52.9,198.1L3.8,799.8l210.1-55.1c58.1,31.7,123.2,48.2,189.4,48.2h.2c218.4,0,396.2-177.8,396.3-396.3.3-105.2-41.4-206.2-116-280.4ZM403.4,725.9h-.1c-59,0-116.9-15.8-167.7-45.9l-12-7.1-124.7,32.7,33.3-121.6-7.8-12.5c-32.9-52.5-50.4-113.3-50.3-175.2,0-181.6,147.8-329.4,329.5-329.4,87.4,0,171.1,34.8,232.9,96.6,61.7,61.8,96.4,145.6,96.4,233,0,181.6-147.8,329.3-329.4,329.3ZM584.1,479.2c-9.9-5-58.6-28.9-67.7-32.3-9.1-3.4-15.7-5-22.3,5-6.6,9.9-25.6,32.2-31.4,38.8-5.8,6.6-11.6,7.4-21.5,2.5-9.9-5-41.8-15.4-79.6-49.1-29.4-26.3-49.4-58.7-55.1-68.6-5.7-9.9-.6-15.2,4.4-20.2,4.4-4.4,9.9-11.6,14.8-17.3,4.9-5.8,6.6-9.9,9.9-16.5,3.3-6.6,1.7-12.4-.8-17.3-2.5-5-22.3-53.7-30.5-73.5-8-19.3-16.2-16.7-22.3-17.1-5.7-.3-12.4-.3-19-.3-10.1.3-19.7,4.8-26.4,12.4-9.1,9.9-34.6,33.9-34.6,82.6s35.5,95.8,40.4,102.4c4.9,6.6,69.8,106.6,169.1,149.5,18.4,8,37.3,14.9,56.5,20.9,23.7,7.6,45.3,6.5,62.4,3.9,19-2.9,58.6-24,66.8-47.1,8.3-23.1,8.3-43,5.7-47.1-2.5-4.1-8.9-6.4-18.8-11.4h0Z"/>
</svg>